<svg id="flat" height="512" viewBox="0 0 128 128" width="512" xmlns="http://www.w3.org/2000/svg"><circle cx="63.452" cy="114.553" fill="#f7b521" r="13.447"/><path d="m109.627 99.038c-12.8-11.422-13.89-18-16.78-48.518-2.966-31.306-26.21-32.155-28.847-32.15s-25.881.844-28.847 32.15c-2.891 30.515-3.981 37.1-16.78 48.518-1.473 1.315-2.929 2.635-2.929 4.61v7.81a5.093 5.093 0 0 0 5.093 5.093h86.925a5.093 5.093 0 0 0 5.093-5.093v-7.81c0-1.975-1.455-3.295-2.928-4.61z" fill="#ffc943"/><path d="m112.556 103.647v7.818a5.091 5.091 0 0 1 -5.092 5.091h-11.856a5.09 5.09 0 0 0 5.091-5.091v-7.818c0-1.976-1.456-3.288-2.927-4.615-12.794-11.409-13.89-18.001-16.772-48.506-2.152-22.775-15.032-29.439-22.922-31.372a25.841 25.841 0 0 1 5.928-.778c2.625-.015 25.876.836 28.847 32.15 2.885 30.505 3.981 37.1 16.775 48.506 1.472 1.327 2.928 2.639 2.928 4.615z" fill="#f7b521" opacity=".5"/><path d="m64.006 0a11.856 11.856 0 1 0 11.842 11.856 11.856 11.856 0 0 0 -11.842-11.856zm0 17.438a5.582 5.582 0 1 1 5.582-5.582 5.589 5.589 0 0 1 -5.582 5.582z" fill="#ffc943"/></svg>